<?xml version="1.0" encoding="UTF-8"?>
<svg id="Capa_1" data-name="Capa 1" xmlns="http://www.w3.org/2000/svg" viewBox="0 0 390.24 386.16">
  <defs>
    <style>
      .cls-1 {
        fill: #54bfd1;
      }

      .cls-1, .cls-2 {
        stroke-width: 0px;
      }

      .cls-2 {
        fill: #fff;
      }
    </style>
  </defs>
  <path class="cls-2" d="m195.12.02C259.79.02,324.46.03,389.14,0c.9,0,1.1.2,1.1,1.1-.02,127.98-.02,255.97,0,383.95,0,.9-.2,1.1-1.1,1.1-129.34-.02-258.69-.02-388.03,0-.9,0-1.1-.2-1.1-1.1C.02,257.07.02,129.09,0,1.1,0,.2.2,0,1.1,0c64.67.03,129.34.02,194.02.02Zm13.21,328.17c10.27-.37,23.15.54,36.03-.49,2.75-.22,5.53-.32,8.26-.68,3.28-.43,6.49-1.32,9.74-2,1.85-.38,3.83-.43,5.52-1.18,1.95-.85,4.02-1.24,5.98-2.09,2.78-1.21,5.73-2.3,8.83-2.68.13-.02.31-.12.37-.24.58-1.1,1.88-1.13,2.77-1.54,1.75-.81,3.61-1.56,5.25-2.49,2.17-1.23,4.58-1.93,6.62-3.52,1.87-1.46,3.92-2.88,6.11-3.86,1.49-.67,2.43-2.08,4.05-2.51.76-.2,1.7-.72,2.02-1.36.45-.88.99-1.58,1.8-1.95,1.98-.9,3.4-2.58,5.14-3.79,1.82-1.27,3.57-2.82,5.14-4.52,1.46-1.59,3.5-2.67,4.88-4.3,1.34-1.59,2.91-2.97,4.12-4.7,1.3-1.86,3.01-3.4,4.37-5.27,1.62-2.22,3.66-4.09,5.24-6.41,1.63-2.39,3.18-4.84,4.82-7.23,1.09-1.59,2.47-3.03,3.27-4.85.5-1.13,1.27-2.16,1.81-3.24.55-1.12,1.88-1.73,1.94-3.25.02-.35.32-1.44.86-1.98,1.48-1.52,1.68-3.68,2.74-5.42.32-.52.63-1.26.75-1.81.38-1.86,1.15-3.58,1.87-5.27,1.17-2.75,1.96-5.61,2.92-8.41.66-1.94,1.03-4.16,1.77-5.98,1.55-3.82,1.17-7.96,2.62-11.76.69-1.81.41-3.92.98-5.93.89-3.12.66-6.51.95-9.76.73-8.36.38-16.78.33-25.18-.04-6.77.27-13.57-1.84-20.15-.73-2.26.03-4.65-1.01-7.05-.61-1.41-.72-3.48-.9-5.28-.26-2.55-1.06-5.1-1.96-7.52-1-2.67-1.39-5.5-2.48-8.13-.69-1.69-.93-3.59-1.78-5.17-1.39-2.61-2.03-5.53-3.58-8.07-1.02-1.67-1.4-3.7-2.29-5.4-.87-1.66-1.73-3.37-2.73-4.95-.55-.87-.57-2.12-1.57-2.64-.63-.33-.76-.86-1.05-1.4-.76-1.39-1.43-2.83-2.4-4.13-.91-1.21-1.84-2.46-2.53-3.79-.96-1.84-2.23-3.51-3.33-5.22-.72-1.11-1.75-2.3-2.71-3.4-2-2.28-4.26-4.29-6.1-6.76-1-1.33-2.65-2.48-4.04-3.65-2.9-2.44-5.42-5.3-8.56-7.48-1.82-1.26-3.32-2.96-5.28-4.05-.3-.17-.72-.19-.94-.42-1.06-1.15-2.46-1.8-3.74-2.62-1.75-1.14-3.67-2.03-5.38-3.23-1.71-1.2-3.65-1.87-5.47-2.8-.84-.43-2.02-.76-2.49-1.3-.55-.65-.91-.59-1.5-.55-.1,0-.23-.08-.32-.15-1.95-1.38-4.34-1.77-6.39-2.98-2.31-1.36-4.99-1.98-7.59-2.61-1.55-.38-2.98-1.09-4.58-1.37-.99-.18-1.99-.52-3.01-.75-2.92-.66-5.7-2.02-8.82-1.5-.14.02-.4-.04-.43-.11-.3-1.02-1.14-.67-1.79-.71-2.59-.18-5.15-.15-7.75-.9-2.8-.8-5.88-.17-8.82-1-1.86-.52-3.97-.22-5.97-.22-25.48-.01-50.95-.04-76.43.02-2.55,0-5.07-.05-7.69.62-3.94,1-8.14.48-12.23,1.25-2.75.52-5.71.57-8.5,1.01-3.81.61-7.49,2.06-11.24,3.06-3.74,1-7.23,2.66-10.87,3.94-1.48.52-3,1.01-4.4,1.68-1.21.58-2.58.97-3.62,1.77-1.5,1.15-3.3,1.66-4.85,2.69-1.42.94-3.14,1.44-4.49,2.45-1.27.96-2.64,1.8-3.91,2.78-.65.5-.97,1.32-1.76,1.63-1.93.78-3.53,2.08-5.16,3.33-1.17.89-2.48,1.64-3.54,2.64-2.28,2.14-4.51,4.33-6.97,6.27-.77.61-1.53,1.38-2.12,2.14-1.13,1.45-2.5,2.6-3.82,3.83-.76.71-1.8,1.43-2.14,2.25-.96,2.31-3.29,3.33-4.53,5.44-.91,1.54-2.28,3.02-3.48,4.49-1.79,2.21-3.45,4.54-5.01,6.92-1.35,2.05-2.54,4.2-3.67,6.38-.45.87-1.36,1.49-1.41,2.57-.03.64-.4,1.12-.79,1.55-1.95,2.12-2.75,4.89-4.07,7.35-.35.65-1.12,1.12-1.13,1.97,0,1.04-.18,1.98-.78,2.91-.38.58-1.01,1.23-1.05,1.82-.11,1.73-1.21,3.04-1.65,4.62-.16.58.61.99.19,1.41-2.16,2.18-1.77,5.36-3.12,7.92-.88,1.67-1.24,3.85-1.58,5.85-.54,3.18-1.13,6.38-1.85,9.49-.66,2.9-1.08,5.84-1.63,8.74-.48,2.53-.44,5.22-.51,7.81-.24,8.71-.13,17.44-.09,26.15,0,1.72.1,3.43.37,5.17.52,3.4-.09,6.89.94,10.36.48,1.61-.14,3.7.81,5.28.9,1.5.78,3.05.96,4.62.03.23.06.53.21.65,1.57,1.32.77,3.37,1.31,5.01.5,1.51.65,3.46,1.14,5.15.38,1.32,1.44,2.52,1.56,3.83.22,2.4,1.48,4.43,1.93,6.7.41,2.08,2.6,3.56,1.94,5.96-.02.08.06.26.15.3,1.21.6.79,2.04,1.61,2.97,1.09,1.23,1.6,2.98,2.39,4.48.85,1.62,1.41,3.44,2.73,4.74.95.94.88,2.29,1.73,3.33.67.83,1.67,1.64,1.98,2.67.7,2.28,2.44,3.87,3.83,5.56,1.47,1.79,2.33,4.04,4.2,5.56.45.36,1.02,1.36,1.44,1.68.77.59.78,1.46,1.4,2.06,3.54,3.51,7.48,6.7,9.98,11.1.7,1.23,1.32,2.62,1.31,4.23-.05,21.48-.04,42.95-.04,64.43,0,4.16,1.87,7.43,4.75,10.27.68.67,1.64.95,2.24,1.55,1.21,1.21,2.67,1.95,4.21,2.32,2.61.63,5.32.36,8,.3,1.11-.02,2.1-.28,3.19-.8,1.09-.51,1.63-1.47,2.57-1.97,1.67-.88,3.52-1.37,5.01-2.67,1.98-1.72,4.9-1.9,6.7-4.07,1.23-1.48,3.36-1.6,4.91-2.8,1.64-1.27,3.77-1.99,5.5-3.12,1.81-1.17,3.81-2.04,5.47-3.36,1.03-.82,2.46-.79,3.2-1.59,1.16-1.25,2.78-1.56,4.01-2.59,1.37-1.14,3.08-1.77,4.57-2.78.83-.56,1.58-1.45,2.89-1.44.63,0,1.77-.64,1.87-1.53.11-1.01.68-1.33,1.39-1.19,1.53.3,2.65-.85,3.49-1.47,1.92-1.42,4.24-2.11,6.03-3.62.89-.75,2.19-.82,2.83-1.43,1.58-1.5,3.42-2.86,5.29-3.35,1.79-.47,2.3-2.2,4.06-2.62,1.45-.34,2.94-1.11,4.44-1.47,1.27-.3,2.68-.07,4.02-.07,11.36,0,22.72,0,36.68,0Z"/>
  <path class="cls-1" d="m208.33,328.2c-13.97,0-25.33,0-36.68,0-1.35,0-2.75-.23-4.02.07-1.5.36-3,1.12-4.44,1.47-1.76.42-2.28,2.15-4.06,2.62-1.87.49-3.71,1.84-5.29,3.35-.64.61-1.95.68-2.83,1.43-1.8,1.51-4.11,2.2-6.03,3.62-.84.63-1.96,1.77-3.49,1.47-.71-.14-1.28.17-1.39,1.19-.1.9-1.24,1.54-1.87,1.53-1.31,0-2.06.88-2.89,1.44-1.49,1.01-3.2,1.64-4.57,2.78-1.23,1.02-2.85,1.34-4.01,2.59-.74.8-2.17.76-3.2,1.59-1.66,1.32-3.66,2.19-5.47,3.36-1.74,1.13-3.86,1.84-5.5,3.12-1.55,1.2-3.68,1.32-4.91,2.8-1.8,2.17-4.72,2.35-6.7,4.07-1.49,1.3-3.34,1.79-5.01,2.67-.94.5-1.48,1.45-2.57,1.97-1.09.51-2.08.77-3.19.8-2.67.05-5.39.32-8-.3-1.54-.37-2.99-1.11-4.21-2.32-.6-.6-1.56-.88-2.24-1.55-2.88-2.84-4.75-6.11-4.75-10.27,0-21.48-.01-42.95.04-64.43,0-1.61-.61-2.99-1.31-4.23-2.5-4.4-6.44-7.59-9.98-11.1-.61-.61-.63-1.48-1.4-2.06-.42-.32-.99-1.32-1.44-1.68-1.87-1.53-2.74-3.77-4.2-5.56-1.38-1.69-3.13-3.28-3.83-5.56-.32-1.03-1.31-1.83-1.98-2.67-.84-1.05-.77-2.39-1.73-3.33-1.32-1.3-1.88-3.12-2.73-4.74-.79-1.51-1.3-3.25-2.39-4.48-.82-.93-.4-2.38-1.61-2.97-.08-.04-.17-.21-.15-.3.66-2.41-1.53-3.88-1.94-5.96-.45-2.27-1.71-4.3-1.93-6.7-.12-1.31-1.18-2.51-1.56-3.83-.49-1.7-.64-3.65-1.14-5.15-.54-1.64.26-3.69-1.31-5.01-.15-.12-.18-.43-.21-.65-.17-1.57-.06-3.12-.96-4.62-.95-1.58-.32-3.67-.81-5.28-1.04-3.46-.42-6.95-.94-10.36-.27-1.74-.36-3.45-.37-5.17-.04-8.72-.15-17.44.09-26.15.07-2.59.03-5.27.51-7.81.55-2.9.97-5.84,1.63-8.74.71-3.11,1.31-6.31,1.85-9.49.34-2,.71-4.18,1.58-5.85,1.34-2.56.96-5.74,3.12-7.92.42-.42-.35-.83-.19-1.41.44-1.58,1.54-2.89,1.65-4.62.04-.58.67-1.23,1.05-1.82.6-.93.78-1.88.78-2.91,0-.85.78-1.32,1.13-1.97,1.33-2.46,2.12-5.23,4.07-7.35.4-.43.76-.9.79-1.55.05-1.08.96-1.7,1.41-2.57,1.13-2.18,2.33-4.33,3.67-6.38,1.56-2.38,3.22-4.71,5.01-6.92,1.19-1.48,2.57-2.95,3.48-4.49,1.24-2.11,3.57-3.13,4.53-5.44.34-.81,1.38-1.53,2.14-2.25,1.32-1.24,2.69-2.38,3.82-3.83.59-.76,1.35-1.53,2.12-2.14,2.46-1.95,4.69-4.13,6.97-6.27,1.07-1,2.37-1.75,3.54-2.64,1.63-1.25,3.23-2.55,5.16-3.33.79-.32,1.11-1.13,1.76-1.63,1.26-.98,2.63-1.82,3.91-2.78,1.34-1.02,3.07-1.51,4.49-2.45,1.55-1.03,3.35-1.55,4.85-2.69,1.05-.8,2.41-1.19,3.62-1.77,1.4-.67,2.92-1.16,4.4-1.68,3.63-1.28,7.13-2.94,10.87-3.94,3.76-1.01,7.43-2.45,11.24-3.06,2.79-.45,5.75-.49,8.5-1.01,4.09-.77,8.29-.25,12.23-1.25,2.62-.67,5.14-.61,7.69-.62,25.48-.05,50.95-.03,76.43-.02,2,0,4.1-.3,5.97.22,2.94.83,6.02.2,8.82,1,2.6.74,5.15.72,7.75.9.66.04,1.5-.31,1.79.71.02.07.29.13.43.11,3.12-.52,5.9.84,8.82,1.5,1.02.23,2.02.57,3.01.75,1.6.29,3.03,1,4.58,1.37,2.6.63,5.28,1.25,7.59,2.61,2.06,1.2,4.45,1.6,6.39,2.98.1.07.22.15.32.15.59-.04.95-.09,1.5.55.46.54,1.65.88,2.49,1.3,1.82.92,3.77,1.6,5.47,2.8,1.7,1.2,3.63,2.09,5.38,3.23,1.27.83,2.68,1.48,3.74,2.62.21.23.64.26.94.42,1.97,1.08,3.47,2.79,5.28,4.05,3.15,2.18,5.67,5.04,8.56,7.48,1.4,1.18,3.05,2.32,4.04,3.65,1.85,2.46,4.11,4.48,6.1,6.76.96,1.1,2,2.29,2.71,3.4,1.1,1.71,2.37,3.37,3.33,5.22.69,1.33,1.63,2.59,2.53,3.79.97,1.3,1.64,2.73,2.4,4.13.29.54.42,1.07,1.05,1.4,1.01.53,1.02,1.77,1.57,2.64,1,1.59,1.86,3.29,2.73,4.95.89,1.7,1.27,3.73,2.29,5.4,1.55,2.54,2.19,5.46,3.58,8.07.85,1.59,1.09,3.49,1.78,5.17,1.09,2.64,1.48,5.47,2.48,8.13.9,2.42,1.7,4.97,1.96,7.52.19,1.8.29,3.87.9,5.28,1.04,2.4.28,4.79,1.01,7.05,2.11,6.58,1.8,13.39,1.84,20.15.05,8.4.4,16.82-.33,25.18-.28,3.25-.06,6.64-.95,9.76-.58,2.01-.29,4.12-.98,5.93-1.45,3.8-1.06,7.94-2.62,11.76-.74,1.82-1.1,4.04-1.77,5.98-.96,2.8-1.75,5.67-2.92,8.41-.72,1.68-1.48,3.41-1.87,5.27-.11.54-.43,1.29-.75,1.81-1.06,1.74-1.26,3.91-2.74,5.42-.53.54-.84,1.63-.86,1.98-.07,1.53-1.39,2.14-1.94,3.25-.54,1.08-1.31,2.11-1.81,3.24-.8,1.81-2.17,3.25-3.27,4.85-1.64,2.38-3.19,4.84-4.82,7.23-1.58,2.32-3.62,4.2-5.24,6.41-1.36,1.87-3.07,3.4-4.37,5.27-1.21,1.73-2.78,3.11-4.12,4.7-1.38,1.64-3.42,2.71-4.88,4.3-1.56,1.71-3.31,3.26-5.14,4.52-1.75,1.22-3.16,2.89-5.14,3.79-.81.37-1.35,1.07-1.8,1.95-.33.64-1.26,1.15-2.02,1.36-1.62.44-2.56,1.84-4.05,2.51-2.19.98-4.24,2.4-6.11,3.86-2.04,1.59-4.45,2.3-6.62,3.52-1.64.93-3.5,1.68-5.25,2.49-.89.41-2.19.44-2.77,1.54-.06.12-.24.22-.37.24-3.1.38-6.06,1.47-8.83,2.68-1.96.85-4.04,1.24-5.98,2.09-1.69.74-3.67.79-5.52,1.18-3.25.67-6.46,1.56-9.74,2-2.73.36-5.51.46-8.26.68-12.88,1.03-25.76.12-36.03.49Zm-11.05-263c-11.29.18-26.12-.28-40.95.18-3.57.11-7.06,1.09-10.65.83-.08,0-.16.03-.23.05-2,.73-4.09,1.15-6.16,1.62-1.3.29-2.61.54-3.89.91-2.67.78-5.19,2.02-7.97,2.45-.23.04-.5.08-.67.22-2.04,1.71-4.82,1.89-7,3.49-1.1.81-2.65,1.44-4.01,1.92-1.58.55-2.95,1.15-4.18,2.29-1.36,1.25-3.21,1.71-4.75,2.81-2.12,1.53-4.32,2.95-6.35,4.62-.95.78-1.76,1.79-2.79,2.38-1.67.96-2.76,2.57-4.44,3.54-1.09.63-1.75,1.98-2.63,2.98-1.29,1.45-3.05,2.42-4.09,4.13-.52.86-1.15,1.66-1.82,2.41-.79.88-1.91,1.55-2.48,2.54-1.01,1.78-2.3,3.34-3.5,4.96-1.3,1.77-2.31,3.73-3.65,5.45-.69.9-.68,2.41-1.34,2.75-1.5.79-1.71,2.34-2.32,3.45-.81,1.47-1.16,3.27-2.31,4.59-1.01,1.16-.58,2.78-1.33,3.83-.91,1.27-1.52,2.62-1.98,4.05-.74,2.33-2.23,4.39-2.6,6.82-.43,2.86-1.16,5.72-2.3,8.27-.86,1.92-.57,3.95-1.57,5.84-.96,1.79-.51,4.16-.86,6.27-.69,4.12-1.14,8.4-1.13,12.61.01,4.57-.41,9.1.51,13.77.86,4.38,1.08,9.03,1.32,13.58.05.95.26,1.81.62,2.75.81,2.1,0,4.58,1.31,6.69.58.95-.73,2.51.91,3.25.06.03.05.42-.04.56-.39.6-.2,1.19-.13,1.83.15,1.35,1.1,2.41,1.28,3.72.5,3.54,2.13,6.69,3.27,10.01.5,1.47,1.25,2.87,1.63,4.36.36,1.39,2.22,2.03,1.73,3.76,1.27.38,1.3,1.71,1.84,2.6.55.9,1.48,1.73,1.47,2.85,0,1.13.54,1.77,1.44,2.13.42.17.74.35.43.69-.48.54-.05.76.2,1.08,1.02,1.33,1.96,2.73,3.11,3.95.87.92,1.16,2.33,2.13,2.95,1.81,1.14,2.05,3.38,3.75,4.59.94.67,1.78,1.67,2.52,2.61.77.99,2.1,1.44,2.49,2.81.13.46.68,1.01,1.15,1.14,1.35.39,1.79,1.73,2.81,2.46.98.7,1.78,1.65,2.63,2.51.81.82,1.7,1.59,2.36,2.53.63.9,1.03,1.96,1.5,2.97.78,1.67,1.48,3.36,1.49,5.26,0,13.52-.02,27.04.04,40.55,0,1.38-.08,2.67.89,4.15,1.07,1.63,2.28,1.84,3.73,2.02,2.22.26,4-.99,5.79-2.02.48-.27,1.13-.36,1.42-.77.98-1.38,2.66-1.69,3.86-2.7.77-.64,1.73-.86,2.52-1.4,1.68-1.15,3.26-2.45,5.03-3.44.68-.38,1.21-1.13,2.1-1.15.88-.02,1.41-.62,1.72-1.28.21-.45.41-.6.84-.62,1.14-.06,2.19-.85,2.82-1.43,1.36-1.25,3-1.81,4.53-2.57.58-.29.54-1.17,1.34-1.05.81.12,1.38-.37,2.01-.82.6-.43,1.09-.98,1.82-1.31,1.29-.58,2.57-1.31,3.61-2.24.41-.36.73-.58,1.21-.68.3-.06.53-.06.79-.37.49-.58,1.11-1.28,1.79-1.44,1.82-.42,3.36-1.49,4.9-2.34,2.27-1.25,4.52-1.91,7.05-1.91,23.92-.02,47.83-.03,71.75-.06.54,0,1.17-.23,1.6-.19,2.2.22,4.02-1.23,6.18-1.19,1.98.03,4.05.44,5.94-.25,2.36-.85,4.83-.87,7.22-1.08,2.41-.21,4.53-1.54,6.96-1.38.11,0,.26-.03.33-.11.95-1,2.37-1.24,3.51-1.55,2.23-.6,4.05-2.33,6.48-2.28.04,0,.09-.01.11-.04.92-1.43,2.7-.84,4.04-1.64,1.74-1.03,3.67-2.04,5.58-2.93,2.47-1.16,4.74-2.73,7.1-4.14,1.24-.74,2.48-1.55,3.61-2.42,1.49-1.15,2.66-2.72,4.77-2.78.42-.01.56-.43.72-.73.84-1.59,2.32-2.51,3.62-3.65,2.01-1.76,3.78-3.82,5.79-5.58,1.08-.95,1.69-2.23,2.77-3.18.7-.61,1.55-1.29,1.95-2.08.77-1.49,2.05-2.5,2.97-3.81.48-.69,1.57-1.08,1.32-2.22-.03-.13.12-.39.26-.46,2.4-1.23,2.96-3.89,4.46-5.81.96-1.23,1.5-2.78,2.26-4.17.18-.33.87-.16.83-.83-.08-1.28.86-2.32,1.45-3.18,1.49-2.19,2.45-4.63,3.49-6.98.93-2.09,2.2-4.16,2.29-6.58,0-.12,0-.29.08-.34,1.93-1.35,1.28-3.74,2.19-5.53.68-1.34.43-3.2,1.21-4.44,1.32-2.12.99-4.53,1.77-6.69.85-2.38.44-4.94,1.3-7.39.86-2.44,1.08-5.17,1.18-7.79.19-4.83.25-9.68.06-14.51-.19-4.87.32-9.7-.66-14.63-.71-3.55-.64-7.37-1.23-11.04-.2-1.26.22-2.83-.39-3.76-1.29-1.95-1.33-4.08-1.71-6.19-.17-.95-.36-1.92-.68-2.83-.6-1.68-1.57-3.24-1.72-5.07-.1-1.25-.84-2.28-1.37-3.32-.42-.81.35-2.21-1.14-2.48.21-.5.42-.95.04-1.53-.98-1.51-1.46-3.27-2.19-4.9-.6-1.35-1.4-2.61-2.05-3.96-.61-1.27-1.28-2.57-1.93-3.85-.23-.45-1.09-.34-.91-1.16.26-1.21-.85-1.98-1.31-2.85-.41-.77-1.27-1.67-1.69-2.46-1.15-2.19-2.68-4.05-4.24-5.9-.95-1.14-1.59-2.47-2.72-3.53-.85-.8-1.57-1.82-2.42-2.69-1.78-1.81-3.63-3.56-5.36-5.41-1.13-1.21-2.44-2.23-3.56-3.47-1.23-1.37-3.12-2.07-4.51-3.4-.79-.76-2.12-1.15-2.92-1.8-1.82-1.47-3.67-2.81-5.71-3.94-.54-.3-1.1-.58-1.54-1-.86-.81-1.91-1.32-2.96-1.75-.94-.4-2.19-.77-2.76-1.27-.89-.78-1.99-1-2.9-1.53-2.55-1.51-5.42-2.44-8.26-3.37-1.14-.37-2.33-.61-3.46-1.05-2.38-.93-4.86-1.59-7.26-2.47-1.58-.58-3.46-.74-5.09-.87-4.59-.37-9.12-1.32-13.73-1.34-12.96-.04-25.92-.01-42.41-.01Z"/>
  <path class="cls-2" d="m197.28,65.19c16.49,0,29.45-.03,42.41.01,4.61.01,9.15.97,13.73,1.34,1.63.13,3.5.29,5.09.87,2.41.88,4.88,1.54,7.26,2.47,1.13.44,2.32.68,3.46,1.05,2.85.93,5.71,1.86,8.26,3.37.91.53,2,.75,2.9,1.53.57.5,1.81.87,2.76,1.27,1.04.44,2.09.94,2.96,1.75.44.41,1.01.7,1.54,1,2.03,1.13,3.89,2.47,5.71,3.94.8.65,2.13,1.04,2.92,1.8,1.39,1.34,3.28,2.03,4.51,3.4,1.12,1.25,2.43,2.26,3.56,3.47,1.73,1.85,3.59,3.6,5.36,5.41.85.86,1.57,1.89,2.42,2.69,1.13,1.05,1.76,2.39,2.72,3.53,1.55,1.85,3.09,3.71,4.24,5.9.42.8,1.28,1.7,1.69,2.46.46.86,1.57,1.64,1.31,2.85-.18.82.68.71.91,1.16.66,1.28,1.32,2.58,1.93,3.85.64,1.35,1.44,2.61,2.05,3.96.73,1.63,1.21,3.38,2.19,4.9.37.57.16,1.02-.04,1.53,1.49.27.73,1.67,1.14,2.48.53,1.04,1.27,2.07,1.37,3.32.15,1.83,1.13,3.39,1.72,5.07.32.91.51,1.88.68,2.83.38,2.11.41,4.24,1.71,6.19.62.93.19,2.5.39,3.76.6,3.67.52,7.48,1.23,11.04.98,4.93.48,9.77.66,14.63.18,4.83.13,9.68-.06,14.51-.1,2.62-.32,5.35-1.18,7.79-.86,2.45-.45,5.01-1.3,7.39-.78,2.17-.45,4.58-1.77,6.69-.78,1.25-.53,3.1-1.21,4.44-.91,1.79-.26,4.18-2.19,5.53-.07.05-.07.23-.08.34-.09,2.42-1.36,4.49-2.29,6.58-1.05,2.35-2,4.79-3.49,6.98-.59.86-1.53,1.9-1.45,3.18.04.67-.65.49-.83.83-.76,1.39-1.3,2.94-2.26,4.17-1.51,1.92-2.07,4.58-4.46,5.81-.14.07-.29.33-.26.46.24,1.15-.84,1.54-1.32,2.22-.92,1.31-2.2,2.32-2.97,3.81-.41.79-1.26,1.47-1.95,2.08-1.08.95-1.69,2.24-2.77,3.18-2.02,1.76-3.78,3.81-5.79,5.58-1.3,1.14-2.78,2.06-3.62,3.65-.16.3-.3.72-.72.73-2.11.06-3.28,1.63-4.77,2.78-1.13.87-2.36,1.67-3.61,2.42-2.35,1.41-4.63,2.98-7.1,4.14-1.91.89-3.84,1.9-5.58,2.93-1.35.8-3.12.2-4.04,1.64-.02.03-.07.04-.11.04-2.43-.05-4.24,1.68-6.48,2.28-1.13.31-2.56.55-3.51,1.55-.07.07-.22.11-.33.11-2.43-.16-4.55,1.17-6.96,1.38-2.39.21-4.87.23-7.22,1.08-1.9.69-3.96.28-5.94.25-2.16-.04-3.98,1.41-6.18,1.19-.43-.04-1.06.19-1.6.19-23.92.03-47.83.04-71.75.06-2.52,0-4.78.66-7.05,1.91-1.54.85-3.08,1.91-4.9,2.34-.68.16-1.29.86-1.79,1.44-.26.31-.49.31-.79.37-.48.09-.8.32-1.21.68-1.05.93-2.32,1.66-3.61,2.24-.73.33-1.22.88-1.82,1.31-.64.45-1.2.94-2.01.82-.8-.12-.76.76-1.34,1.05-1.53.76-3.18,1.32-4.53,2.57-.64.59-1.68,1.38-2.82,1.43-.43.02-.63.17-.84.62-.31.66-.84,1.26-1.72,1.28-.88.02-1.41.77-2.1,1.15-1.76.99-3.35,2.29-5.03,3.44-.79.54-1.76.76-2.52,1.4-1.2,1.01-2.88,1.32-3.86,2.7-.29.41-.95.5-1.42.77-1.79,1.03-3.57,2.29-5.79,2.02-1.46-.17-2.67-.39-3.73-2.02-.97-1.48-.89-2.77-.89-4.15-.06-13.52-.04-27.04-.04-40.55,0-1.89-.71-3.59-1.49-5.26-.47-1.01-.87-2.07-1.5-2.97-.66-.93-1.55-1.71-2.36-2.53-.86-.86-1.65-1.82-2.63-2.51-1.02-.73-1.46-2.07-2.81-2.46-.47-.13-1.01-.68-1.15-1.14-.39-1.36-1.72-1.82-2.49-2.81-.74-.95-1.57-1.94-2.52-2.61-1.7-1.21-1.95-3.45-3.75-4.59-.97-.61-1.27-2.03-2.13-2.95-1.15-1.21-2.08-2.62-3.11-3.95-.25-.32-.68-.54-.2-1.08.31-.35-.01-.52-.43-.69-.9-.37-1.45-1-1.44-2.13,0-1.13-.92-1.96-1.47-2.85-.55-.88-.57-2.22-1.84-2.6.49-1.73-1.38-2.38-1.73-3.76-.38-1.49-1.13-2.89-1.63-4.36-1.14-3.32-2.77-6.47-3.27-10.01-.18-1.3-1.13-2.36-1.28-3.72-.07-.64-.26-1.23.13-1.83.09-.14.11-.53.04-.56-1.64-.74-.33-2.31-.91-3.25-1.3-2.11-.49-4.59-1.31-6.69-.36-.94-.57-1.79-.62-2.75-.24-4.55-.46-9.2-1.32-13.58-.92-4.67-.49-9.2-.51-13.77-.01-4.2.44-8.48,1.13-12.61.35-2.11-.1-4.48.86-6.27,1.01-1.89.72-3.92,1.57-5.84,1.14-2.55,1.87-5.4,2.3-8.27.37-2.43,1.86-4.49,2.6-6.82.46-1.43,1.07-2.77,1.98-4.05.75-1.06.32-2.68,1.33-3.83,1.15-1.32,1.51-3.11,2.31-4.59.61-1.11.82-2.66,2.32-3.45.66-.35.65-1.86,1.34-2.75,1.33-1.73,2.34-3.69,3.65-5.45,1.2-1.62,2.49-3.18,3.5-4.96.56-.99,1.68-1.66,2.48-2.54.67-.75,1.3-1.55,1.82-2.41,1.04-1.71,2.8-2.68,4.09-4.13.89-1,1.55-2.35,2.63-2.98,1.68-.97,2.77-2.58,4.44-3.54,1.03-.59,1.84-1.6,2.79-2.38,2.03-1.68,4.23-3.1,6.35-4.62,1.54-1.11,3.39-1.56,4.75-2.81,1.23-1.13,2.6-1.73,4.18-2.29,1.37-.48,2.92-1.11,4.01-1.92,2.18-1.61,4.96-1.78,7-3.49.17-.14.44-.18.67-.22,2.78-.43,5.3-1.67,7.97-2.45,1.28-.37,2.59-.62,3.89-.91,2.07-.47,4.16-.89,6.16-1.62.07-.03.16-.06.23-.05,3.59.26,7.08-.72,10.65-.83,14.83-.46,29.66,0,40.95-.18Zm-80.18,117.35h.01c0,23.32,0,46.63,0,69.95,0,1.73.47,3.25,1.71,4.6.64.69,1.52.91,2.08,1.53.72.8,1.31,1.53,2.54,1.53,25.96-.02,51.91-.01,77.87,0,1.52,0,2.61-.82,3.51-1.78,1.56-1.68,2.18-3.92,2.24-6.1.16-5.59.03-11.2.02-16.8,0-1.21-.76-2.32-1.31-3.11-1.11-1.6-2.96-2.35-5.16-2.34-16.48.08-32.96.05-49.43.05-1.31,0-2.33.41-2.26-1.97.28-10.11.15-20.23.1-30.35-.01-2.02.26-2.58,2.65-2.55,2.48.03,4.96.01,7.44.01,13.16,0,26.32-.04,39.47.03,1.49,0,2.92-.79,3.34-1.57,1.09-2.04,2.14-4.24,2.14-6.69,0-4.72.13-9.44-.06-14.16-.13-3.34-2.16-5.86-5.84-5.84-15.6.06-31.2.04-46.79.02-2.47,0-2.32.54-2.33-2.26-.02-9.32.03-18.64-.03-27.96,0-1.4.43-1.68,1.75-1.68,17.56.05,35.12.05,52.67,0,1.36,0,2.68.3,4.1-.84,2.12-1.69,3.43-3.7,3.55-6.22.22-4.71.13-9.44.07-14.15-.02-1.75.3-3.49-.84-5.22-1-1.51-3.31-3.57-5.11-3.57-27.36,0-54.71.01-82.07,0-1.88,0-3.26,1.01-4.41,2.23-1.27,1.35-1.61,3.22-1.62,5.02-.03,23.4-.02,46.79-.02,70.19Zm131.75-78.42c-2.78.7-6.71-1.09-10.46.85-.87.45-1.65.93-2.22,1.59-1.05,1.22-1.1,2.78-1.1,4.36.02,25.51.04,51.03-.05,76.54-.01,3.44.34,7.11-1.95,10.08-.93,1.21-.9,2.69-1.81,3.96-.96,1.33-1.77,2.76-2.83,4.08-.95,1.18-1.45,2.81-2.37,4.09-.72,1.01-.63,2.37-1.22,3.22-1.04,1.51-1.51,3.29-1.56,4.82-.25,7.71-.14,15.43-.15,23.15,0,1.63-.06,3.26.52,4.83.57,1.56.74,3.45,1.76,4.61,1.59,1.81,3.05,3.76,4.95,5.38,2.51,2.14,5.62,2.79,8.38,4.23,1.57.82,3.87,1.07,5.79,1.12,8.2.21,16.47.97,24.44-2.03,1.98-.75,3.98-1.52,6.03-2.15,1.77-.54,3.4-1.69,4.91-2.81.88-.66,1.96-.66,2.76-1.23,1.19-.84,2.3-1.82,3.36-2.8,3.9-3.63,7.7-7.32,10.36-12.1,1.46-2.63,2.46-5.43,3.45-8.17.58-1.6,1.15-3.5,1.24-5.35.1-2.16.27-4.33.11-6.47-.17-2.23.78-3.84,2.27-5.23,1.76-1.65,2.99-3.72,4.45-5.6.4-.51.96-.99,1.29-1.7.65-1.42,1.64-2.69,2.4-4.1.45-.84,1.01-1.9,1.37-2.7.48-1.06.78-2.42,1.18-3.62,1-2.97,1.82-5.97,1.99-9.11.08-1.48.11-2.96.06-4.44-.16-4.26.46-8.57-1.03-12.75-.69-1.95-.78-4.01-2.03-5.91-1.09-1.66-1.47-3.84-2.96-5.32-1.39-1.37-2.21-3.17-3.76-4.46-1.08-.9-2.43-1.5-3.27-2.74-.31-.45-1.05-.74-1.65-1.04-.91-.45-1.96-1.22-2.31-2.1-.45-1.16-.6-2.52-.83-3.77-.41-2.31-.98-4.65-.76-7.05.02-.19.02-.47-.09-.58-1.28-1.26-.98-3.06-1.55-4.57-.83-2.17-1.14-4.51-2.7-6.4-1.34-1.62-1.98-3.73-3.64-5.18-1.23-1.07-2.22-2.4-3.38-3.55-.93-.93-1.87-1.87-2.94-2.61-.56-.39-.96-1.04-1.55-1.24-1.11-.38-1.94-.99-2.79-1.79-.38-.36-.74-1.15-1.46-1.09-1.36.1-2.37-.79-3.46-1.29-3.13-1.44-6.52-2.03-9.73-3.22-1.57-.59-3.56-.46-5.36-.58-3.02-.21-6.07-.06-10.09-.06Z"/>
  <path class="cls-1" d="m117.1,182.54c0-23.4-.01-46.79.02-70.19,0-1.8.35-3.67,1.62-5.02,1.14-1.21,2.52-2.23,4.41-2.23,27.36.01,54.71,0,82.07,0,1.8,0,4.11,2.06,5.11,3.57,1.14,1.72.81,3.47.84,5.22.06,4.72.15,9.45-.07,14.15-.12,2.52-1.43,4.53-3.55,6.22-1.43,1.14-2.74.84-4.1.84-17.56.05-35.12.04-52.67,0-1.32,0-1.76.28-1.75,1.68.06,9.32.01,18.64.03,27.96,0,2.8-.14,2.26,2.33,2.26,15.6.02,31.2.04,46.79-.02,3.67-.01,5.71,2.51,5.84,5.84.18,4.71.05,9.44.06,14.16,0,2.45-1.05,4.65-2.14,6.69-.42.78-1.84,1.58-3.34,1.57-13.16-.07-26.32-.03-39.47-.03-2.48,0-4.96.01-7.44-.01-2.39-.02-2.66.54-2.65,2.55.05,10.12.18,20.24-.1,30.35-.07,2.38.95,1.97,2.26,1.97,16.48,0,32.96.03,49.43-.05,2.2-.01,4.05.73,5.16,2.34.54.78,1.3,1.89,1.31,3.11,0,5.6.14,11.2-.02,16.8-.06,2.18-.68,4.42-2.24,6.1-.89.96-1.99,1.78-3.51,1.78-25.96-.02-51.91-.02-77.87,0-1.23,0-1.82-.74-2.54-1.53-.56-.62-1.44-.84-2.08-1.53-1.24-1.35-1.71-2.87-1.71-4.6,0-23.32,0-46.63,0-69.95h-.01Z"/>
  <path class="cls-1" d="m248.85,104.12c4.02,0,7.07-.15,10.09.06,1.79.13,3.78,0,5.36.58,3.21,1.19,6.6,1.78,9.73,3.22,1.09.5,2.1,1.39,3.46,1.29.72-.05,1.08.74,1.46,1.09.85.8,1.68,1.41,2.79,1.79.58.2.98.85,1.55,1.24,1.07.74,2.02,1.68,2.94,2.61,1.16,1.16,2.15,2.48,3.38,3.55,1.66,1.45,2.3,3.56,3.64,5.18,1.56,1.89,1.87,4.23,2.7,6.4.57,1.51.27,3.31,1.55,4.57.11.11.11.38.09.58-.22,2.4.35,4.74.76,7.05.22,1.25.37,2.61.83,3.77.34.88,1.39,1.65,2.31,2.1.6.3,1.34.59,1.65,1.04.85,1.24,2.19,1.85,3.27,2.74,1.55,1.29,2.37,3.08,3.76,4.46,1.49,1.48,1.88,3.66,2.96,5.32,1.25,1.9,1.33,3.96,2.03,5.91,1.48,4.18.87,8.49,1.03,12.75.05,1.48.02,2.96-.06,4.44-.17,3.14-.99,6.14-1.99,9.11-.41,1.2-.7,2.55-1.18,3.62-.37.81-.92,1.87-1.37,2.7-.76,1.4-1.75,2.67-2.4,4.1-.32.71-.89,1.19-1.29,1.7-1.46,1.88-2.69,3.95-4.45,5.6-1.49,1.4-2.44,3-2.27,5.23.16,2.14-.01,4.31-.11,6.47-.08,1.85-.65,3.75-1.24,5.35-1,2.74-1.99,5.54-3.45,8.17-2.66,4.78-6.46,8.46-10.36,12.1-1.05.98-2.17,1.97-3.36,2.8-.81.57-1.88.56-2.76,1.23-1.51,1.13-3.14,2.27-4.91,2.81-2.05.63-4.04,1.4-6.03,2.15-7.97,3.01-16.24,2.24-24.44,2.03-1.92-.05-4.22-.3-5.79-1.12-2.76-1.44-5.88-2.09-8.38-4.23-1.9-1.62-3.35-3.57-4.95-5.38-1.02-1.16-1.19-3.05-1.76-4.61-.57-1.57-.52-3.2-.52-4.83.01-7.72-.1-15.44.15-23.15.05-1.52.52-3.3,1.56-4.82.59-.85.49-2.21,1.22-3.22.92-1.29,1.42-2.91,2.37-4.09,1.06-1.32,1.87-2.75,2.83-4.08.91-1.26.88-2.74,1.81-3.96,2.29-2.97,1.94-6.64,1.95-10.08.08-25.51.06-51.03.05-76.54,0-1.58.05-3.14,1.1-4.36.57-.66,1.35-1.14,2.22-1.59,3.75-1.94,7.68-.15,10.46-.85Zm30.25,80.96c2.01-.04,3.54-.33,5.04-.4,3.42-.18,5.88-1.89,8.3-3.97,1.19-1.03,1.37-2.43,1.84-3.79.85-2.47-1.22-5.55-3.77-5.81-2.31-.23-4.33.84-6.52.97-1.55.09-3.12,0-4.67-.02-.31,0-.79.01-.91-.17-.76-1.15-2.32-.73-3.17-1.73-.73-.86-2.08-.77-2.82-1.72-1.14-1.45-2.55-2.64-3.7-4.13-1.08-1.39-2.01-2.93-2.47-4.41-.85-2.75-.8-5.7-.72-8.65.11-3.97,2.1-6.94,4.19-9.96,1.6-2.32,1.45-3.83-.52-5.91-.74-.78-1.72-1.07-2.55-1.62-3.18-2.13-7.97-.83-10.34.99-1.6,1.22-1.67,3.16-2.29,4.75-1.19,3.02-1.32,6.38-1.66,9.58-.46,4.29-.86,8.69.61,13,.43,1.27,1.18,2.68.74,4.2-.06.2.13.56.32.72,1.1.93,1.22,2.42,1.98,3.55.29.43,1.05.46.97,1.14-.13,1.13.59,1.78,1.29,2.51.52.54,1.65,1.03,1.66,1.22.07,1.67,1.72,1.73,2.52,2.6,1.34,1.47,3.07,2.58,4.86,3.53,2.15,1.13,4.01,2.75,6.66,2.9,1.86.11,3.68.87,5.12.64Zm-13.4,19.13c-2.09.03-4.09.14-6.17.81-2.14.69-4.16,1.45-6.03,2.67-1.04.68-2,1.44-2.81,2.43-.83,1.01-1.93,1.76-2.68,2.91-.43.67-.66,1.42-1.08,2.03-.93,1.34-1.84,2.65-1.91,4.36-.01.31,0,.58-.26.87-.98,1.09-1.02,2.61-1.44,3.89-.89,2.73.62,5.41,1.07,8.11.34,2.06,1.46,3.86,2.7,5.51.65.86,1.63,1.94,2.55,2.03,1.89.19,3.86,1.1,5.76-.66,1.57-1.45,3.05-3.85,2.6-5.83-.14-.64-.98-.95-.88-1.72.37-2.95-.98-6.01.86-8.89,1.01-1.58,1.63-3.33,2.97-4.79,1.78-1.94,4.03-2.21,6.32-2.71,1.52-.33,2.52,1.06,3.95.94.79-.07,1.62-.22,2.28.59.2.25,1.07.58,1.3.2.66-1.07,2.09-.87,2.79-2.24.82-1.62,1.59-2.99,1.6-4.91,0-1.4-.98-2.19-1.6-2.5-1.3-.65-2.57-1.6-3.88-1.95-1.56-.42-3.2-.67-4.8-1.11-1.01-.27-2.14-.05-3.22-.05Z"/>
  <path class="cls-2" d="m279.1,185.08c-1.45.23-3.26-.53-5.12-.64-2.65-.15-4.51-1.77-6.66-2.9-1.8-.94-3.52-2.06-4.86-3.53-.79-.87-2.45-.94-2.52-2.6,0-.18-1.13-.67-1.66-1.22-.71-.73-1.43-1.38-1.29-2.51.08-.68-.68-.71-.97-1.14-.76-1.14-.88-2.62-1.98-3.55-.18-.16-.37-.52-.32-.72.45-1.52-.31-2.93-.74-4.2-1.47-4.32-1.07-8.71-.61-13,.34-3.2.47-6.55,1.66-9.58.63-1.59.7-3.53,2.29-4.75,2.37-1.82,7.16-3.12,10.34-.99.83.56,1.81.84,2.55,1.62,1.97,2.08,2.13,3.59.52,5.91-2.09,3.02-4.08,5.99-4.19,9.96-.08,2.95-.13,5.91.72,8.65.46,1.48,1.39,3.01,2.47,4.41,1.15,1.49,2.56,2.68,3.7,4.13.74.95,2.09.86,2.82,1.72.85.99,2.41.58,3.17,1.73.12.18.59.16.91.17,1.56.03,3.12.11,4.67.02,2.19-.13,4.2-1.21,6.52-.97,2.55.26,4.62,3.34,3.77,5.81-.47,1.36-.64,2.76-1.84,3.79-2.41,2.09-4.88,3.8-8.3,3.97-1.49.08-3.03.36-5.04.4Z"/>
  <path class="cls-2" d="m265.7,204.21c1.08,0,2.22-.22,3.22.05,1.6.43,3.24.69,4.8,1.11,1.3.35,2.57,1.3,3.88,1.95.62.31,1.61,1.1,1.6,2.5,0,1.92-.78,3.29-1.6,4.91-.69,1.37-2.12,1.17-2.79,2.24-.23.38-1.1.04-1.3-.2-.66-.81-1.5-.66-2.28-.59-1.43.13-2.43-1.27-3.95-.94-2.29.5-4.54.78-6.32,2.71-1.34,1.46-1.96,3.21-2.97,4.79-1.84,2.87-.49,5.94-.86,8.89-.1.77.74,1.08.88,1.72.45,1.98-1.03,4.38-2.6,5.83-1.91,1.76-3.88.85-5.76.66-.92-.09-1.9-1.17-2.55-2.03-1.24-1.64-2.35-3.44-2.7-5.51-.45-2.7-1.96-5.38-1.07-8.11.42-1.28.46-2.81,1.44-3.89.26-.29.25-.56.26-.87.07-1.7.98-3.01,1.91-4.36.42-.61.65-1.37,1.08-2.03.75-1.14,1.85-1.9,2.68-2.91.81-.99,1.76-1.75,2.81-2.43,1.87-1.22,3.89-1.97,6.03-2.67,2.08-.68,4.09-.78,6.17-.81Z"/>
</svg>